<?xml version="1.0" encoding="utf-8"?>
<!-- Generator: Adobe Illustrator 25.2.1, SVG Export Plug-In . SVG Version: 6.00 Build 0)  -->
<svg version="1.1" id="Слой_1" xmlns="http://www.w3.org/2000/svg" xmlns:xlink="http://www.w3.org/1999/xlink" x="0px" y="0px"
	 viewBox="0 0 32 32" style="enable-background:new 0 0 32 32;" xml:space="preserve">
<style type="text/css">
	.st0{fill:#FFFFFF;}
</style>
<g id="Download">
	<path class="st0" d="M31,22c-0.6,0-1,0.4-1,1v7H2v-7c0-0.6-0.4-1-1-1s-1,0.4-1,1v8c0,0.6,0.4,1,1,1h30c0.6,0,1-0.4,1-1v-8
		C32,22.4,31.6,22,31,22z"/>
	<path class="st0" d="M15.3,23.7c0.4,0.4,1,0.4,1.4,0l7-6.9c0.4-0.4,0.4-1,0-1.4c-0.4-0.4-1-0.4-1.4,0L17,20.6V1c0-0.6-0.5-1-1-1
		c-0.6,0-1,0.4-1,1v19.6l-5.3-5.2c-0.4-0.4-1-0.4-1.4,0c-0.4,0.4-0.4,1,0,1.4L15.3,23.7z"/>
</g>
</svg>
